P1
# a
24 48 
000000000000000000000000
000000000000000000000000
000000000000000000000000
000000000000000000000000
000000000000000000000000
000000000000000000000000
000000000000000000000000
000000000000000000000000
000000000000000000000000
000000000000000000000000
000000000000000000000000
000000000000000000000000
000000111111111000000000
000000111111111000000000
000000111111111000000000
000111000000000111000000
000111000000000111000000
000111000000000111000000
000000000000000111000000
000000000000000111000000
000000000000000111000000
000000111111111000000000
000000111111111000000000
000000111111111000000000
000111000000000111000000
000111000000000111000000
000111000000000111000000
000111000000000111000000
000111000000000111000000
000111000000000111000000
000000111111111000111000
000000111111111000111000
000000111111111000111000
000000000000000000000000
000000000000000000000000
000000000000000000000000
000000000000000000000000
000000000000000000000000
000000000000000000000000
000000000000000000000000
000000000000000000000000
000000000000000000000000
000000000000000000000000
000000000000000000000000
000000000000000000000000
000000000000000000000000
000000000000000000000000
000000000000000000000000
