P1
# b
7 16
0000000
0100000
0100000
0100000
0111100
0100010
0100010
0100010
0100010
0110010
0101100
0000000
0000000
0000000
0000000
0000000
