P1
# c
7 16
0000000
0000000
0000000
0000000
0011100
0100010
0100000
0100000
0100000
0100010
0011100
0000000
0000000
0000000
0000000
0000000
