P1
# comma
5 16
00000
00000
00000
00000
00000
00000
00000
00000
00000
00000
00110
00110
00010
00100
01000
00000
