P1
# d
7 16
0000000
0000010
0000010
0000010
0011110
0100010
0100010
0100010
0100010
0100110
0011010
0000000
0000000
0000000
0000000
0000000
