P1
# f
6 16
000000
000000
000110
001000
001000
011110
001000
001000
001000
001000
001000
000000
000000
000000
000000
000000
