P1
# h
7 16
0000000
0100000
0100000
0100000
0101100
0110010
0100010
0100010
0100010
0100010
0100010
0000000
0000000
0000000
0000000
0000000
