P1
# i
7 16
0000000
0000000
0000000
0000000
0010000
0000000
0110000
0010000
0010000
0010000
0111000
0000000
0000000
0000000
0000000
0000000
