P1
# j
6 16
000000
000000
000000
000000
000000
000000
000010
000000
000110
000010
000010
000010
000010
010010
001100
000000
