P1
# k
7 16
0000000
0010000
0010000
0010000
0010010
0010100
0011000
0010000
0011000
0010100
0010010
0000000
0000000
0000000
0000000
0000000
