P1
# -
7 16
0000000
0000000
0000000
0000000
0000000
0000000
0111110
0000000
0000000
0000000
0000000
0000000
0000000
0000000
0000000
0000000
