P1
# o
9 16
000000000
000000000
000000000
000000000
000111000
001000100
010000010
010000010
010000010
001000100
000111000
000000000
000000000
000000000
000000000
000000000
