P1
# przyklad okregu
8 8
0000000000011000001001000100001001000010001001000001100000000000