P1
51 16
000000000000000000000000000000000000000000000000000000000000000000000000000100000000000000000000000000000000000000000000000000100000000000000000000000000000000000000000000000000100000000000000000000000000000000000111000010001000100000010000010110000111000000000001000100010001000100000000000011001001000100010110000000100010001000100000110000010001000000100011001000111000010001000100000010000010001000111000010001001000100010001000100000010000010001001000100010001001000100010011000100000010000010001001000100010001000111010001101000011100111000010001000111010011110000000000000000000000000000000000000000000000010000000000000000000000000000000000000000000000000010000000000000000000000000000000000000000000000000010000000000000000000000000000000000000000000000000000000000000000000000000000000000000000000000000000