P1
# plus
7 16
0000000
0000000
0000000
0000000
0001000
0001000
0111110
0001000
0001000
0000000
0000000
0000000
0000000
0000000
0000000
0000000
