P1
# q
7 16
0000000
0000000
0000000
0000000
0000000
0000000
0011010
0100110
0100010
0100010
0100010
0011110
0000010
0000010
0000010
0000000
