P1
# t
7 16
0000000
0010000
0010000
0111000
0010000
0010000
0010000
0010000
0010000
0010000
0001110
0000000
0000000
0000000
0000000
0000000
