P1
# u
7 16
0000000
0000000
0000000
0000000
0100010
0100010
0100010
0100010
0100010
0100110
0011010
0000000
0000000
0000000
0000000
0000000
