P1
# v
7 16
0000000
0000000
0000000
0000000
0100010
0100010
0100010
0100010
0100010
0010100
0001000
0000000
0000000
0000000
0000000
0000000 
