P1
# w
11 16
00000000000
00000000000
00000000000
00000000000
01000100010
01000100010
01000100010
01000100010
01000100010
01000100110
00111011010
00000000000
00000000000
00000000000
00000000000
00000000000
