P1
# x
9 16
000000000
000000000
000000000
000000000
011000110
001000100
000101000
000010000
000101000
001000100
011000110
000000000
000000000
000000000
000000000
000000000
