P1
# z
7 16
0000000
0000000
0000000
0000000
0111110
0000010
0000100
0001000
0010000
0100000
0111110
0000000
0000000
0000000
0000000
0000000
